<svg width="21" height="16" viewBox="0 0 21 16" fill="none" xmlns="http://www.w3.org/2000/svg">
<path d="M2.64272 0.800781H18.5427C20.0427 0.800781 20.7987 1.50878 20.7987 2.94878V13.0528C20.7987 14.4808 20.0427 15.2008 18.5427 15.2008H2.64272C1.14272 15.2008 0.386719 14.4808 0.386719 13.0528V2.94878C0.386719 1.50878 1.14272 0.800781 2.64272 0.800781ZM10.5867 11.1208L18.6747 4.48478C18.9627 4.24478 19.1907 3.69278 18.8307 3.20078C18.4827 2.70878 17.8467 2.69678 17.4267 2.99678L10.5867 7.62878L3.75872 2.99678C3.33872 2.69678 2.70272 2.70878 2.35472 3.20078C1.99472 3.69278 2.22272 4.24478 2.51072 4.48478L10.5867 11.1208Z" fill="#F2F2F2"/>
</svg>
