<svg
              width="20"
              height="16"
              viewBox="0 0 20 16"
              fill="none"
              xmlns="http://www.w3.org/2000/svg"
            >
              <path
                d="M0.666992 0.680847H19.3337V5.4468H0.666992V0.680847Z"
                fill="#456EFE"
              />
              <path
                d="M0.666992 10.2128H19.3337V14.9787H0.666992V10.2128Z"
                fill="#35A01A"
              />
              <path
                d="M0.666992 5.34668H19.3337V10.2128H0.666992V5.34668ZM3.00033 2.91364C3.00064 2.48249 3.18259 2.06437 3.51602 1.72856C3.84945 1.39276 4.31434 1.15942 4.83366 1.06723C4.66952 1.03732 4.50188 1.02191 4.33366 1.02127C4.02724 1.02127 3.72382 1.07022 3.44073 1.16532C3.15764 1.26042 2.90041 1.39981 2.68374 1.57553C2.46707 1.75125 2.2952 1.95987 2.17794 2.18946C2.06068 2.41905 2.00033 2.66513 2.00033 2.91364C2.00033 3.16214 2.06068 3.40822 2.17794 3.63781C2.2952 3.8674 2.46707 4.07602 2.68374 4.25174C2.90041 4.42746 3.15764 4.56685 3.44073 4.66195C3.72382 4.75705 4.02724 4.806 4.33366 4.806C4.50566 4.806 4.67233 4.7887 4.83366 4.76004C4.31434 4.66785 3.84945 4.43451 3.51602 4.09871C3.18259 3.7629 3.00064 3.34478 3.00033 2.91364ZM5.99099 2.07559L5.67766 2.25942L5.79633 1.96096L5.48432 1.77119H5.87033L5.99099 1.4776L6.11166 1.77119H6.49766L6.18566 1.96096L6.30433 2.25942L5.99099 2.07559Z"
                fill="#FAFAFA"
              />
              <line
                x1="0.666992"
                y1="5.19681"
                x2="19.3337"
                y2="5.19681"
                stroke="#FF3030"
                stroke-width="0.5"
              />
              <line
                x1="0.666992"
                y1="9.96277"
                x2="19.3337"
                y2="9.96277"
                stroke="#FF3030"
                stroke-width="0.5"
              />
              <path
                d="M5.5 1.36171H6.66667L6.33333 2.38299H5.5V1.36171Z"
                fill="#456EFE"
              />
              <path
                d="M7.92977 2.14633L7.83433 1.78281L8.11628 1.56865L7.77425 1.55664L7.67115 1.19148L7.55595 1.5483L7.21777 1.53991L7.48424 1.7704L7.36923 2.12661L7.65805 1.91654L7.92977 2.14633Z"
                fill="#FAFAFA"
              />
              <path
                d="M7.92977 3.37103L7.83433 3.00751L8.11628 2.79335L7.77425 2.78134L7.67115 2.41618L7.55595 2.773L7.21777 2.76461L7.48424 2.9951L7.36923 3.35131L7.65805 3.14124L7.92977 3.37103Z"
                fill="#FAFAFA"
              />
              <path
                d="M7.92977 4.59573L7.83433 4.23221L8.11628 4.01805L7.77425 4.00604L7.67115 3.64088L7.55595 3.9977L7.21777 3.98931L7.48424 4.2198L7.36923 4.57601L7.65805 4.36594L7.92977 4.59573Z"
                fill="#FAFAFA"
              />
              <path
                d="M5.71199 4.59573L5.61656 4.23221L5.89851 4.01805L5.55648 4.00604L5.45338 3.64088L5.33817 3.9977L5 3.98931L5.26646 4.2198L5.15146 4.57601L5.44028 4.36594L5.71199 4.59573Z"
                fill="#FAFAFA"
              />
              <path
                d="M9.03816 2.14633L8.94273 1.78281L9.22468 1.56865L8.88265 1.55664L8.77955 1.19148L8.66434 1.5483L8.32617 1.53991L8.59264 1.7704L8.47763 2.12661L8.76645 1.91654L9.03816 2.14633Z"
                fill="#FAFAFA"
              />
              <path
                d="M9.03816 3.37103L8.94273 3.00751L9.22468 2.79335L8.88265 2.78134L8.77955 2.41618L8.66434 2.773L8.32617 2.76461L8.59264 2.9951L8.47763 3.35131L8.76645 3.14124L9.03816 3.37103Z"
                fill="#FAFAFA"
              />
              <path
                d="M6.82039 3.37103L6.72496 3.00751L7.00691 2.79335L6.66487 2.78134L6.56177 2.41618L6.44657 2.773L6.1084 2.76461L6.37486 2.9951L6.25986 3.35131L6.54867 3.14124L6.82039 3.37103Z"
                fill="#FAFAFA"
              />
              <path
                d="M9.03816 4.59573L8.94273 4.23221L9.22468 4.01805L8.88265 4.00604L8.77955 3.64088L8.66434 3.9977L8.32617 3.98931L8.59264 4.2198L8.47763 4.57601L8.76645 4.36594L9.03816 4.59573Z"
                fill="#FAFAFA"
              />
              <path
                d="M6.82039 4.59573L6.72496 4.23221L7.00691 4.01805L6.66487 4.00604L6.56177 3.64088L6.44657 3.9977L6.1084 3.98931L6.37486 4.2198L6.25986 4.57601L6.54867 4.36594L6.82039 4.59573Z"
                fill="#FAFAFA"
              />
              <path
                d="M10.1466 2.14633L10.0511 1.78281L10.3331 1.56865L9.99105 1.55664L9.88795 1.19148L9.77274 1.5483L9.43457 1.53991L9.70103 1.7704L9.58603 2.12661L9.87485 1.91654L10.1466 2.14633Z"
                fill="#FAFAFA"
              />
              <path
                d="M10.1466 3.37103L10.0511 3.00751L10.3331 2.79335L9.99105 2.78134L9.88795 2.41618L9.77274 2.773L9.43457 2.76461L9.70103 2.9951L9.58603 3.35131L9.87485 3.14124L10.1466 3.37103Z"
                fill="#FAFAFA"
              />
              <path
                d="M10.1466 4.59573L10.0511 4.23221L10.3331 4.01805L9.99105 4.00604L9.88795 3.64088L9.77274 3.9977L9.43457 3.98931L9.70103 4.2198L9.58603 4.57601L9.87485 4.36594L10.1466 4.59573Z"
                fill="#FAFAFA"
              />
            </svg>