<svg width="20" height="26" viewBox="0 0 20 26" fill="none" xmlns="http://www.w3.org/2000/svg">
<g clip-path="url(#clip0_326_4809)">
<path d="M20 10.5C20 17.1667 10 25.5 10 25.5C10 25.5 0 16.9433 0 10.5C0 4.05668 4.47715 0.5 10 0.5C15.5228 0.5 20 4.05668 20 10.5Z" fill="#E84138"/>
<path d="M11.6667 10.5C11.6667 11.4205 10.9205 12.1667 10 12.1667C9.07952 12.1667 8.33333 11.4205 8.33333 10.5C8.33333 9.57952 9.07952 8.83333 10 8.83333C10.9205 8.83333 11.6667 9.57952 11.6667 10.5Z" fill="#E84138"/>
<circle cx="10" cy="10" r="4" fill="#831410"/>
</g>
<defs>
<clipPath id="clip0_326_4809">
<rect width="20" height="25" fill="white" transform="translate(0 0.5)"/>
</clipPath>
</defs>
</svg>
