<svg width="32" height="32" viewBox="0 0 32 32" fill="none" xmlns="http://www.w3.org/2000/svg">
<path d="M24 25V23.1111C24 22.1092 23.5786 21.1483 22.8284 20.4398C22.0783 19.7314 21.0609 19.3333 20 19.3333H12C10.9391 19.3333 9.92172 19.7314 9.17157 20.4398C8.42143 21.1483 8 22.1092 8 23.1111V25" stroke="#3D3D3D" stroke-width="2" stroke-linecap="round" stroke-linejoin="round"/>
<path d="M16 15.5556C18.2091 15.5556 20 13.8642 20 11.7778C20 9.69137 18.2091 8 16 8C13.7909 8 12 9.69137 12 11.7778C12 13.8642 13.7909 15.5556 16 15.5556Z" stroke="#3D3D3D" stroke-width="2" stroke-linecap="round" stroke-linejoin="round"/>
<path d="M16 28C22.6274 28 28 22.6274 28 16C28 9.37261 22.6274 4.00003 16 4.00003C9.37258 4.00003 4 9.37261 4 16C4 22.6274 9.37258 28 16 28Z" stroke="#3D3D3D" stroke-width="2" stroke-linecap="round" stroke-linejoin="round"/>
</svg>
